<mxfile host="app.diagrams.net" modified="2022-12-08T08:57:04.957Z" agent="5.0 (Windows NT 10.0; Win64; x64) AppleWebKit/537.36 (KHTML, like Gecko) Chrome/107.0.0.0 Safari/537.36" version="20.6.0" etag="buQb_51SUQCHnp14FiOq" type="github">
  <diagram id="x4yLYx76ZAlp4QWMDHrQ" name="PÃ¡gina-1">
    <mxGraphModel dx="1131" dy="719" grid="1" gridSize="10" guides="1" tooltips="1" connect="1" arrows="1" fold="1" page="1" pageScale="1" pageWidth="827" pageHeight="1169" math="0" shadow="0">
      <root>
        <mxCell id="0" />
        <mxCell id="1" parent="0" />
        <mxCell id="Ye2DUqxcNSqiuqPUkBuu-3" style="edgeStyle=orthogonalEdgeStyle;rounded=0;orthogonalLoop=1;jettySize=auto;html=1;exitX=0.5;exitY=1;exitDx=0;exitDy=0;" edge="1" parent="1" source="Ye2DUqxcNSqiuqPUkBuu-1" target="Ye2DUqxcNSqiuqPUkBuu-2">
          <mxGeometry relative="1" as="geometry" />
        </mxCell>
        <mxCell id="Ye2DUqxcNSqiuqPUkBuu-1" value="Player Joins&lt;br&gt;" style="rounded=0;whiteSpace=wrap;html=1;" vertex="1" parent="1">
          <mxGeometry x="240" y="20" width="120" height="40" as="geometry" />
        </mxCell>
        <mxCell id="Ye2DUqxcNSqiuqPUkBuu-5" style="edgeStyle=orthogonalEdgeStyle;rounded=0;orthogonalLoop=1;jettySize=auto;html=1;exitX=0.5;exitY=1;exitDx=0;exitDy=0;" edge="1" parent="1" source="Ye2DUqxcNSqiuqPUkBuu-2" target="Ye2DUqxcNSqiuqPUkBuu-4">
          <mxGeometry relative="1" as="geometry" />
        </mxCell>
        <mxCell id="Ye2DUqxcNSqiuqPUkBuu-2" value="Player moved to a Closed HUB with doors (rides)" style="rounded=0;whiteSpace=wrap;html=1;" vertex="1" parent="1">
          <mxGeometry x="240" y="140" width="120" height="60" as="geometry" />
        </mxCell>
        <mxCell id="Ye2DUqxcNSqiuqPUkBuu-7" style="edgeStyle=orthogonalEdgeStyle;rounded=0;orthogonalLoop=1;jettySize=auto;html=1;exitX=0.5;exitY=1;exitDx=0;exitDy=0;" edge="1" parent="1" source="Ye2DUqxcNSqiuqPUkBuu-4" target="Ye2DUqxcNSqiuqPUkBuu-6">
          <mxGeometry relative="1" as="geometry" />
        </mxCell>
        <mxCell id="Ye2DUqxcNSqiuqPUkBuu-4" value="Select avaliable ride and wait until Round (countdown) ends" style="rounded=0;whiteSpace=wrap;html=1;" vertex="1" parent="1">
          <mxGeometry x="240" y="240" width="120" height="60" as="geometry" />
        </mxCell>
        <mxCell id="Ye2DUqxcNSqiuqPUkBuu-9" style="edgeStyle=orthogonalEdgeStyle;rounded=0;orthogonalLoop=1;jettySize=auto;html=1;" edge="1" parent="1" source="Ye2DUqxcNSqiuqPUkBuu-6" target="Ye2DUqxcNSqiuqPUkBuu-8">
          <mxGeometry relative="1" as="geometry" />
        </mxCell>
        <mxCell id="Ye2DUqxcNSqiuqPUkBuu-6" value="Player /s are move to a wagon, 1st person, no moves" style="rounded=0;whiteSpace=wrap;html=1;" vertex="1" parent="1">
          <mxGeometry x="240" y="320" width="120" height="60" as="geometry" />
        </mxCell>
        <mxCell id="Ye2DUqxcNSqiuqPUkBuu-11" style="edgeStyle=orthogonalEdgeStyle;rounded=0;orthogonalLoop=1;jettySize=auto;html=1;" edge="1" parent="1" source="Ye2DUqxcNSqiuqPUkBuu-8" target="Ye2DUqxcNSqiuqPUkBuu-10">
          <mxGeometry relative="1" as="geometry" />
        </mxCell>
        <mxCell id="Ye2DUqxcNSqiuqPUkBuu-8" value="Ride Start&lt;br&gt;" style="rounded=0;whiteSpace=wrap;html=1;" vertex="1" parent="1">
          <mxGeometry x="240" y="410" width="120" height="40" as="geometry" />
        </mxCell>
        <mxCell id="Ye2DUqxcNSqiuqPUkBuu-12" style="edgeStyle=orthogonalEdgeStyle;rounded=0;orthogonalLoop=1;jettySize=auto;html=1;entryX=1;entryY=0.5;entryDx=0;entryDy=0;" edge="1" parent="1" source="Ye2DUqxcNSqiuqPUkBuu-10" target="Ye2DUqxcNSqiuqPUkBuu-2">
          <mxGeometry relative="1" as="geometry">
            <Array as="points">
              <mxPoint x="450" y="520" />
              <mxPoint x="450" y="170" />
            </Array>
          </mxGeometry>
        </mxCell>
        <mxCell id="Ye2DUqxcNSqiuqPUkBuu-10" value="Ride Ends&lt;br&gt;" style="rounded=0;whiteSpace=wrap;html=1;" vertex="1" parent="1">
          <mxGeometry x="240" y="500" width="120" height="40" as="geometry" />
        </mxCell>
        <mxCell id="Ye2DUqxcNSqiuqPUkBuu-15" style="edgeStyle=orthogonalEdgeStyle;rounded=0;orthogonalLoop=1;jettySize=auto;html=1;" edge="1" parent="1" source="Ye2DUqxcNSqiuqPUkBuu-13">
          <mxGeometry relative="1" as="geometry">
            <mxPoint x="300" y="110" as="targetPoint" />
          </mxGeometry>
        </mxCell>
        <mxCell id="Ye2DUqxcNSqiuqPUkBuu-13" value="User saved data" style="shape=datastore;whiteSpace=wrap;html=1;" vertex="1" parent="1">
          <mxGeometry x="450" y="80" width="70" height="60" as="geometry" />
        </mxCell>
      </root>
    </mxGraphModel>
  </diagram>
</mxfile>
